# This file is brought to you by Roblox Corporation
# Generated by Roblox Studio

mtllib eef.mtl

g RegularHexagon1

v 0.866025 0.0999999 0.5 
v 0.866025 -0.0999999 -0.5 
v 0.866025 0.1 -0.5 
v 0.866025 -0.1 0.5 
v 0.866025 0.1 -0.5 
v 0 0.0999998 1 
v 0.866025 0.0999999 0.5 
v -0.866025 0.1 -0.5 
v -0.866025 0.0999999 0.5 
v 1.19209e-07 0.1 -1 
v -0.866025 0.0999999 0.5 
v 0 -0.1 1 
v 0 0.0999998 1 
v -0.866025 -0.1 0.5 
v 0 0.0999998 1 
v 0.866025 -0.1 0.5 
v 0.866025 0.0999999 0.5 
v 0 -0.1 1 
v -0.866025 0.1 -0.5 
v -0.866025 -0.1 0.5 
v -0.866025 0.0999999 0.5 
v -0.866025 -0.0999999 -0.5 
v 1.19209e-07 -0.0999998 -1 
v 0 -0.1 1 
v -0.866025 -0.0999999 -0.5 
v 0.866025 -0.0999999 -0.5 
v 0.866025 -0.1 0.5 
v -0.866025 -0.1 0.5 
v 1.19209e-07 0.1 -1 
v -0.866025 -0.0999999 -0.5 
v -0.866025 0.1 -0.5 
v 1.19209e-07 -0.0999998 -1 
v 0.866025 0.1 -0.5 
v 1.19209e-07 -0.0999998 -1 
v 1.19209e-07 0.1 -1 
v 0.866025 -0.0999999 -0.5 

vn 1 0 0 
vn 1 0 0 
vn 1 0 0 
vn 1 0 0 
vn 0 1 0 
vn 0 1 0 
vn 0 1 0 
vn 0 1 0 
vn 0 1 0 
vn 0 1 0 
vn -0.496063 0 0.866142 
vn -0.496063 0 0.866142 
vn -0.496063 0 0.866142 
vn -0.496063 0 0.866142 
vn 0.503937 0 0.866142 
vn 0.503937 0 0.866142 
vn 0.503937 0 0.866142 
vn 0.503937 0 0.866142 
vn -1 0 0 
vn -1 0 0 
vn -1 0 0 
vn -1 0 0 
vn 0 -1 0 
vn 0 -1 0 
vn 0 -1 0 
vn 0 -1 0 
vn 0 -1 0 
vn 0 -1 0 
vn -0.496063 0 -0.866142 
vn -0.496063 0 -0.866142 
vn -0.496063 0 -0.866142 
vn -0.496063 0 -0.866142 
vn 0.503937 0 -0.866142 
vn 0.503937 0 -0.866142 
vn 0.503937 0 -0.866142 
vn 0.503937 0 -0.866142 

vt -0.783178 0.591487 
vt 0.216821 0.391488 
vt 0.216821 0.591488 
vt -0.783178 0.391487 
vt -1.1492 -0.00851226 
vt -0.283178 1.49149 
vt -1.1492 0.991488 
vt 0.582847 -0.0085125 
vt 0.582847 0.991488 
vt -0.283179 -0.508512 
vt -1.1492 0.591487 
vt -0.283178 0.391487 
vt -0.283178 0.591487 
vt -1.1492 0.391487 
vt -0.283178 0.591487 
vt 0.582847 0.391487 
vt 0.582847 0.591487 
vt -0.283178 0.391487 
vt -0.783179 0.591488 
vt 0.216821 0.391487 
vt 0.216822 0.591487 
vt -0.783179 0.391488 
vt -0.283178 -0.508512 
vt -0.283178 1.49149 
vt -1.1492 -0.0085125 
vt 0.582847 -0.00851238 
vt 0.582847 0.991487 
vt -1.1492 0.991488 
vt -0.283179 0.591488 
vt 0.582847 0.391488 
vt 0.582847 0.591488 
vt -0.283179 0.391488 
vt -1.1492 0.591488 
vt -0.283179 0.391488 
vt -0.283179 0.591488 
vt -1.1492 0.391488 

usemtl RegularHexagon1Mtl

f 1/1/1 2/2/2 3/3/3 
f 2/2/2 1/1/1 4/4/4 
f 5/5/5 6/6/6 7/7/7 
f 6/6/6 8/8/8 9/9/9 
f 6/6/6 10/10/10 8/8/8 
f 10/10/10 6/6/6 5/5/5 
f 11/11/11 12/12/12 13/13/13 
f 12/12/12 11/11/11 14/14/14 
f 15/15/15 16/16/16 17/17/17 
f 16/16/16 15/15/15 18/18/18 
f 19/19/19 20/20/20 21/21/21 
f 20/20/20 19/19/19 22/22/22 
f 23/23/23 24/24/24 25/25/25 
f 24/24/24 26/26/26 27/27/27 
f 25/25/25 24/24/24 28/28/28 
f 26/26/26 24/24/24 23/23/23 
f 29/29/29 30/30/30 31/31/31 
f 30/30/30 29/29/29 32/32/32 
f 33/33/33 34/34/34 35/35/35 
f 34/34/34 33/33/33 36/36/36 

